<svg width="30" height="30" viewBox="0 0 30 30" fill="none" xmlns="http://www.w3.org/2000/svg">
<path d="M15 7.5C15 11.6421 11.6421 15 7.5 15C3.35786 15 0 11.6421 0 7.5C0 3.35786 3.35786 0 7.5 0C11.6421 0 15 3.35786 15 7.5Z" fill="white"/>
<path fill-rule="evenodd" clip-rule="evenodd" d="M22.5 0C26.6421 0 30 3.35786 30 7.5C30 11.6421 26.6421 15 22.5 15C18.3579 15 15 11.6421 15 7.5C15 3.35786 18.3579 0 22.5 0ZM22.5 1C18.9101 1 16 3.91015 16 7.5C16 11.0899 18.9101 14 22.5 14C26.0899 14 29 11.0899 29 7.5C29 3.91015 26.0899 1 22.5 1Z" fill="#5D5D5D"/>
<path fill-rule="evenodd" clip-rule="evenodd" d="M22.5 15C26.6421 15 30 18.3579 30 22.5C30 26.6421 26.6421 30 22.5 30C18.3579 30 15 26.6421 15 22.5C15 18.3579 18.3579 15 22.5 15ZM22.5 16C18.9101 16 16 18.9101 16 22.5C16 26.0899 18.9101 29 22.5 29C26.0899 29 29 26.0899 29 22.5C29 18.9101 26.0899 16 22.5 16Z" fill="#5D5D5D"/>
<path fill-rule="evenodd" clip-rule="evenodd" d="M7.5 15C11.6421 15 15 18.3579 15 22.5C15 26.6421 11.6421 30 7.5 30C3.35786 30 0 26.6421 0 22.5C0 18.3579 3.35786 15 7.5 15ZM7.5 16C3.91015 16 1 18.9101 1 22.5C1 26.0899 3.91015 29 7.5 29C11.0899 29 14 26.0899 14 22.5C14 18.9101 11.0899 16 7.5 16Z" fill="#5D5D5D"/>
</svg>
