<svg width="30" height="30" viewBox="0 0 30 30" fill="none" xmlns="http://www.w3.org/2000/svg">
<path d="M7.5 15.3555C11.3226 15.3555 14.4436 18.3577 14.6348 22.1328L14.6445 22.5L14.6348 22.8672C14.4436 26.6423 11.3226 29.6445 7.5 29.6445C3.55423 29.6445 0.355469 26.4458 0.355469 22.5C0.355469 18.5542 3.55423 15.3555 7.5 15.3555ZM22.5 15.3555C26.4458 15.3555 29.6445 18.5542 29.6445 22.5C29.6445 26.4458 26.4458 29.6445 22.5 29.6445C18.5542 29.6445 15.3555 26.4458 15.3555 22.5C15.3555 18.5542 18.5542 15.3555 22.5 15.3555ZM7.5 0.355469C11.3226 0.355469 14.4436 3.35769 14.6348 7.13281L14.6445 7.5L14.6348 7.86719C14.4498 11.5207 11.5207 14.4498 7.86719 14.6348L7.5 14.6445L7.13281 14.6348C3.35769 14.4436 0.355469 11.3226 0.355469 7.5C0.355469 3.55423 3.55423 0.355469 7.5 0.355469ZM22.5 0.355469C26.4458 0.355469 29.6445 3.55423 29.6445 7.5C29.6445 11.3226 26.6423 14.4436 22.8672 14.6348L22.5 14.6445L22.1328 14.6348C18.3577 14.4436 15.3555 11.3226 15.3555 7.5C15.3555 3.55423 18.5542 0.355469 22.5 0.355469Z" stroke="white" stroke-opacity="0.2" stroke-width="0.711111"/>
</svg>
